<svg width="68" height="77" viewBox="0 0 68 77" fill="none" xmlns="http://www.w3.org/2000/svg">
<path d="M67.58 4.86L60.68 0L51.09 13.6C46.3532 10.9651 41.0203 9.58797 35.6 9.6H0V77H67.46V41.43C67.4733 37.1817 66.6291 32.9744 64.9778 29.0601C63.3265 25.1458 60.9022 21.6051 57.85 18.65L67.58 4.86ZM33.13 39.08H8.44V18H35.6C39.2837 18.0035 42.9148 18.8736 46.2 20.54L33.13 39.08ZM33.52 47.51L41.52 68.59H8.44V47.51H33.52ZM59 68.59H50.55L40.78 42.87L52.91 25.66C56.8384 29.9715 59.0109 35.5972 59 41.43V68.59Z" fill="#C09ADD"/>
</svg>
