<svg width="50" height="50" viewBox="0 0 50 50" fill="none" xmlns="http://www.w3.org/2000/svg">
<path d="M49.9759 23.5238V26.3943L49.8897 26.911C49.7319 27.9874 49.6458 29.0782 49.4161 30.1403C48.251 35.9957 44.9709 41.2172 40.2018 44.8086C37.3602 47.0467 34.0532 48.6197 30.5238 49.412C26.9945 50.2043 23.3325 50.1958 19.8068 49.3871C13.9704 48.2227 8.76834 44.9471 5.19595 40.1871C1.26651 35.1738 -0.546637 28.8226 0.14386 22.4904C0.615028 17.2944 2.75489 12.3903 6.24369 8.51105C9.97625 4.21242 15.0842 1.34143 20.6967 0.387518C21.6296 0.215288 22.5769 0.129173 23.5672 0H26.4377C26.56 0.0369801 26.6847 0.0657492 26.8109 0.0861152C30.6669 0.327143 34.406 1.50455 37.7044 3.51637C40.821 5.34402 43.4982 7.83386 45.5467 10.8099C47.5953 13.786 48.9652 17.1757 49.5596 20.7394C49.7606 21.6293 49.861 22.5765 49.9759 23.5238ZM45.6701 26.9684C39.8569 26.4608 34.4089 23.9198 30.2842 19.7921C26.0825 15.6647 23.492 10.1731 22.9787 4.30576C18.1805 4.75065 13.6889 6.85934 10.2814 10.2668C6.87403 13.6742 4.76534 18.1658 4.32045 22.9641C10.1311 23.4652 15.5767 26.0075 19.692 30.1403C23.8625 34.2559 26.4362 39.7186 26.9544 45.5549C31.7482 45.1195 36.2397 43.0244 39.6539 39.6312C43.0681 36.238 45.1908 31.7595 45.6557 26.9684H45.6701ZM4.32045 27.2698C4.83046 31.9741 6.93815 36.3612 10.2919 39.6992C13.6456 43.0373 18.0425 45.1244 22.7491 45.6124C22.2238 40.914 20.1112 36.5354 16.7604 33.2003C13.4096 29.8652 9.02124 27.7731 4.32045 27.2698ZM45.6557 22.7775C45.163 18.0636 43.0717 13.6604 39.7295 10.2999C36.3873 6.93947 31.9956 4.82418 27.2845 4.30576C27.7691 9.02085 29.8607 13.4258 33.2084 16.7813C36.5561 20.1369 40.9562 22.2388 45.6701 22.7344L45.6557 22.7775Z" fill="#E5E1E6"/>
</svg>
