<svg width="35" height="35" viewBox="0 0 35 35" fill="none" xmlns="http://www.w3.org/2000/svg">
<path d="M8.75002 32.6667C9.07231 32.6667 9.33335 32.4056 9.33335 32.0833V19.3856C9.60752 19.5198 9.91231 19.6029 10.239 19.6029H24.8223C25.149 19.6029 25.4523 19.5212 25.7265 19.3871V32.0833C25.7265 32.4056 25.989 32.6667 26.3098 32.6667C26.6306 32.6667 26.8931 32.4056 26.8931 32.0833V17.5306C26.8931 16.3873 25.9627 15.4583 24.8209 15.4583H10.2375C9.91085 15.4583 9.60606 15.5415 9.3319 15.6756V1.45833C9.3319 1.13604 9.0694 0.875 8.74856 0.875C8.42773 0.875 8.16669 1.13604 8.16669 1.45833V32.0833C8.16669 32.4056 8.42773 32.6667 8.75002 32.6667ZM10.239 16.625H24.8223C25.3211 16.625 25.7265 17.0319 25.7265 17.5306C25.7265 18.0294 25.3211 18.4363 24.8223 18.4363H10.239C9.73877 18.4363 9.33335 18.0294 9.33335 17.5306C9.33335 17.0319 9.74023 16.625 10.239 16.625Z" fill="white"/>
<path d="M10.2083 32.9583H7.29168C6.96939 32.9583 6.70834 33.2194 6.70834 33.5417C6.70834 33.864 6.97084 34.125 7.29168 34.125H10.2083C10.5306 34.125 10.7917 33.864 10.7917 33.5417C10.7917 33.2194 10.5306 32.9583 10.2083 32.9583Z" fill="white"/>
<path d="M27.7083 32.9583H24.8369C24.5146 32.9583 24.2535 33.2194 24.2535 33.5417C24.2535 33.864 24.516 34.125 24.8369 34.125H27.7083C28.0306 34.125 28.2917 33.864 28.2917 33.5417C28.2917 33.2194 28.0306 32.9583 27.7083 32.9583Z" fill="white"/>
</svg>
