<svg width="55" height="50" viewBox="0 0 55 50" fill="none" xmlns="http://www.w3.org/2000/svg">
<path d="M37.9678 25.2533C37.9802 23.5867 37.4045 21.9692 36.3419 20.6854C35.2793 19.4015 33.7979 18.5336 32.1584 18.2344C30.0905 18.1019 28.0149 18.1538 25.9562 18.3895C25.0696 18.5338 24.1655 18.5338 23.2789 18.3895C21.4549 17.913 19.5559 17.7937 17.6866 18.038C15.92 18.1759 14.2654 18.9571 13.0365 20.2336C11.8076 21.5102 11.0898 23.1933 11.0192 24.9638C11.0192 26.3386 11.0192 27.7238 11.0192 29.0986V30.3907C11.0192 32.179 11.5464 32.7062 13.3554 32.7062H35.8073C37.3785 32.7062 37.9781 32.0963 37.9781 30.5355C37.9781 30.06 37.9781 29.5741 37.9781 29.0986C37.9988 27.8375 38.0091 26.5454 37.9678 25.2533ZM34.4015 29.1916H14.4718V29.1296C14.4718 27.5894 14.3684 26.1319 14.4718 24.6847C14.5708 23.8687 14.9511 23.1126 15.5473 22.5466C16.1434 21.9807 16.9182 21.6401 17.7383 21.5836C19.2475 21.5216 20.7567 21.7697 22.2659 21.811C23.7751 21.8524 25.0569 21.8834 26.4524 21.811C27.8478 21.7387 29.326 21.5009 30.7629 21.5319C31.6456 21.5248 32.4992 21.8471 33.1568 22.4359C33.8144 23.0247 34.2288 23.8376 34.3188 24.7157C34.407 26.1857 34.407 27.6596 34.3188 29.1296L34.4015 29.1916Z" fill="#E5E1E6"/>
<path d="M24.571 0C22.3137 0.0305531 20.1571 0.939014 18.5583 2.53278C16.9595 4.12655 16.0443 6.28033 16.0067 8.53749C15.969 10.7947 16.8119 12.9777 18.3567 14.6239C19.9014 16.2701 22.0266 17.25 24.2816 17.3558C25.434 17.3736 26.5785 17.1636 27.6496 16.7381C28.7207 16.3125 29.6972 15.6796 30.5231 14.8758C31.349 14.0719 32.0081 13.1129 32.4626 12.0538C32.917 10.9946 33.1579 9.85619 33.1714 8.70374C33.1715 6.41317 32.2687 4.21486 30.6588 2.58553C29.0488 0.956199 26.8614 0.027204 24.571 0ZM24.3643 13.8722C23.3536 13.8417 22.3742 13.5154 21.5471 12.9338C20.7201 12.3521 20.0818 11.5407 19.7114 10.5999C19.3409 9.65915 19.2545 8.63039 19.4628 7.64101C19.6712 6.65163 20.1652 5.74509 20.8836 5.03364C21.602 4.32219 22.5133 3.83709 23.5047 3.63839C24.4961 3.4397 25.5239 3.53614 26.461 3.91577C27.3981 4.29541 28.2033 4.94157 28.7769 5.77423C29.3504 6.6069 29.6671 7.5895 29.6878 8.60037C29.6892 9.29745 29.5521 9.98785 29.2844 10.6315C29.0168 11.2751 28.6239 11.8591 28.1286 12.3496C27.6333 12.8401 27.0454 13.2273 26.3992 13.4887C25.753 13.7501 25.0613 13.8805 24.3643 13.8722Z" fill="#E5E1E6"/>
<path d="M49.5245 29.109V28.0753C49.5245 23.3823 49.5245 18.6893 49.5245 13.9963C49.5351 13.7106 49.4821 13.4261 49.3695 13.1634C49.2569 12.9006 49.0874 12.6661 48.8733 12.4768C47.1367 10.7815 45.4311 9.05521 43.7048 7.30826C43.1983 6.80174 42.6711 6.27456 42.1439 5.70602L39.7354 8.43499C41.5754 10.275 43.5084 12.177 45.3897 14.1203C45.7094 14.4822 45.8986 14.9408 45.9272 15.4228C45.9272 19.661 45.9272 23.9095 45.9272 28.158V29.1296H0V32.7683H8.51768C8.99318 38.0126 9.47213 43.2396 9.95452 48.4495H13.5725L12.7972 39.8698C12.5905 37.5439 12.363 35.2078 12.1356 32.7993H42.3093C42.1852 34.2981 42.0612 35.7556 41.9268 37.2132C41.5857 40.9551 41.2446 44.7075 40.8931 48.4495H44.5111C44.9935 43.2189 45.4724 37.9747 45.9479 32.7166H54.5379V29.109H49.5245Z" fill="#E5E1E6"/>
<path d="M47.9223 46.8989H5.76803V50H47.9223V46.8989Z" fill="#E5E1E6"/>
</svg>
