<svg width="35" height="35" viewBox="0 0 35 35" fill="none" xmlns="http://www.w3.org/2000/svg">
<path d="M9.98047 10.6572C9.98047 8.24414 9.98047 5.83789 9.98047 3.4248C9.98047 2.76172 8.95508 2.76172 8.95508 3.4248C8.95508 5.83789 8.95508 8.24414 8.95508 10.6572C8.95508 11.3203 9.98047 11.3203 9.98047 10.6572Z" fill="white"/>
<path d="M13.3574 15.0596C13.3437 16.5635 12.5029 17.876 11.1699 18.5596C9.86426 19.2295 8.18945 19.0176 7.04785 18.1084C5.87891 17.1719 5.35254 15.6338 5.68066 14.1777C6.00879 12.7354 7.16406 11.6279 8.5791 11.2793C11.0059 10.6709 13.3301 12.626 13.3574 15.0596C13.3643 15.7227 14.3896 15.7227 14.3828 15.0596C14.3623 13.4463 13.5898 11.9971 12.2979 11.0469C11.0195 10.1104 9.26269 9.91211 7.78613 10.4453C6.30273 10.9854 5.18164 12.2227 4.7373 13.7266C4.2793 15.2852 4.69629 16.9531 5.69434 18.2041C6.97266 19.7969 9.24902 20.3643 11.1494 19.6738C13.084 18.9697 14.3623 17.1035 14.3828 15.0596C14.3896 14.3965 13.3643 14.3965 13.3574 15.0596Z" fill="white"/>
<path d="M16.3857 27.0908C16.3857 23.6934 16.3857 20.2891 16.3857 16.8916C16.3857 14.4785 16.3857 12.0654 16.3857 9.65234C16.3857 7.58105 16.3857 5.50293 16.3857 3.43164C16.3857 2.76855 15.3604 2.76855 15.3604 3.43164C15.3604 6.37793 15.3604 9.31738 15.3604 12.2637C15.3604 15.4492 15.3604 18.6348 15.3604 21.8203C15.3604 23.5772 15.3604 25.3272 15.3604 27.084C15.3604 27.7471 16.3857 27.7471 16.3857 27.0908Z" fill="white"/>
<path d="M18.7783 30.5088C18.7578 31.9854 17.6435 33.2637 16.1533 33.4072C14.6357 33.5508 13.3096 32.4981 13.0019 31.0283C12.6943 29.5654 13.6855 28.1162 15.0801 27.7061C16.5019 27.2891 18.0605 28.0889 18.5869 29.4629C18.7168 29.7979 18.7783 30.1465 18.7783 30.5088C18.7851 31.1719 19.8105 31.1719 19.8037 30.5088C19.7832 28.8545 18.7851 27.46 17.2744 26.8379C15.7842 26.2227 13.9932 26.7149 12.9336 27.8906C11.8262 29.1143 11.6553 30.9121 12.4004 32.3682C13.1318 33.79 14.7725 34.6104 16.3447 34.419C18.3135 34.1729 19.7832 32.4912 19.8105 30.5156C19.8174 29.8457 18.792 29.8457 18.7783 30.5088Z" fill="white"/>
<path d="M21.1641 8.25781C21.1641 6.65137 21.1641 5.03809 21.1641 3.43164C21.1641 2.76855 20.1387 2.76855 20.1387 3.43164C20.1387 5.03809 20.1387 6.65137 20.1387 8.25781C20.1387 8.9209 21.1641 8.9209 21.1641 8.25781Z" fill="white"/>
<path d="M22.9687 11.0947C22.9482 12.373 21.9297 13.3916 20.6514 13.4121C19.373 13.4326 18.3545 12.3457 18.334 11.0947C18.3135 9.8164 19.4004 8.79784 20.6514 8.77734C21.9297 8.74999 22.9482 9.84374 22.9687 11.0947C22.9824 11.7578 24.0078 11.7578 23.9941 11.0947C23.9668 9.46777 22.791 8.03906 21.164 7.79296C19.5098 7.54687 17.958 8.55175 17.4453 10.1309C16.9463 11.6894 17.7734 13.4326 19.2295 14.1162C20.7539 14.834 22.5312 14.2734 23.4609 12.9062C23.8232 12.3799 23.9873 11.7236 23.9941 11.0947C24.0078 10.4316 22.9824 10.4316 22.9687 11.0947Z" fill="white"/>
<path d="M25.0195 3.43164C25.0195 6.44629 25.0195 9.46094 25.0195 12.4756C25.0195 13.0361 25.0195 13.5967 25.0195 14.1504C25.0195 14.8135 26.0449 14.8135 26.0449 14.1504C26.0449 10.8965 26.0449 7.64941 26.0449 4.39551C26.0449 4.07422 26.0449 3.75293 26.0449 3.43164C26.0449 2.76855 25.0195 2.76855 25.0195 3.43164Z" fill="white"/>
<path d="M29.4219 18.5527C29.4082 20.0566 28.5674 21.376 27.2344 22.0527C25.9287 22.7227 24.2539 22.5107 23.1123 21.6016C21.9434 20.665 21.417 19.1269 21.7451 17.6641C22.0732 16.2217 23.2285 15.1143 24.6436 14.7588C27.0703 14.1641 29.3945 16.1191 29.4219 18.5527C29.4287 19.2158 30.4541 19.2158 30.4473 18.5527C30.4268 16.9394 29.6611 15.4902 28.3623 14.5332C27.084 13.5898 25.3271 13.3984 23.8506 13.9316C22.3672 14.4717 21.2461 15.709 20.8018 17.2129C20.3437 18.7715 20.7607 20.4463 21.7588 21.6973C23.0371 23.29 25.3135 23.8574 27.2139 23.167C29.1484 22.4629 30.4268 20.5898 30.4473 18.5459C30.4541 17.8965 29.4287 17.8965 29.4219 18.5527Z" fill="white"/>
<path d="M25.9561 2.91895C22.9756 2.91895 19.9951 2.91895 17.0147 2.91895C13.7197 2.91895 10.418 2.91895 7.12306 2.91895C6.85646 2.91895 6.62403 2.82325 6.47364 2.59082C6.19337 2.15332 6.56251 1.58594 7.0547 1.58594C7.34864 1.58594 7.63575 1.58594 7.9297 1.58594C9.59767 1.58594 11.2656 1.58594 12.9336 1.58594C16.9053 1.58594 20.8838 1.58594 24.8555 1.58594C25.1973 1.58594 25.5459 1.58594 25.8877 1.58594C26.1133 1.58594 26.2979 1.64746 26.4619 1.81153C26.8789 2.22852 26.4824 2.89844 25.9561 2.91895C25.2998 2.94629 25.293 3.97168 25.9561 3.94434C26.8174 3.91016 27.5352 3.30176 27.6377 2.4336C27.7334 1.60645 27.207 0.902348 26.4483 0.62891C26.1201 0.512699 25.6826 0.553715 25.334 0.553715C23.7686 0.553715 22.2031 0.553715 20.6445 0.553715C16.5908 0.553715 12.5371 0.553715 8.48341 0.553715C8.04591 0.553715 7.61524 0.553715 7.17774 0.553715C6.14552 0.553715 5.24317 1.33985 5.37306 2.4336C5.48243 3.41797 6.31642 3.94434 7.2461 3.94434C7.72462 3.94434 8.20314 3.94434 8.67481 3.94434C12.7627 3.94434 16.8574 3.94434 20.9453 3.94434C22.6133 3.94434 24.2813 3.94434 25.9492 3.94434C26.6192 3.94434 26.6192 2.91895 25.9561 2.91895Z" fill="white"/>
</svg>
