<svg width="50" height="50" viewBox="0 0 50 50" fill="none" xmlns="http://www.w3.org/2000/svg">
<path d="M22.066 31.9699C26.9555 26.2901 31.9083 20.6524 36.8188 15.0042L39.0845 12.3592H0C0.176567 12.6082 0.366526 12.8474 0.569038 13.0758C5.94328 19.2368 11.321 25.3909 16.7023 31.5379C17.2736 32.1473 17.5804 32.958 17.5559 33.793C17.5032 37.5444 17.5559 41.2958 17.5559 45.0473V46.4593H9.9687V50H28.7785V46.375H21.2019C21.2019 42.1599 21.2019 38.1556 21.2019 34.1196C21.2439 33.3271 21.5479 32.571 22.066 31.9699ZM19.537 29.2723L7.94545 16.0158H31.1074L19.537 29.2723Z" fill="#E5E1E6"/>
<path d="M49.5273 13.708C49.5245 14.7718 49.4043 15.832 49.1691 16.8694C48.5669 19.4228 47.2502 21.752 45.3729 23.5845C43.4956 25.417 41.1353 26.6771 38.5681 27.2174H38.3152L37.4195 22.9075L37.6619 22.8548C39.4098 22.4956 41.0181 21.6425 42.2957 20.3966C43.5733 19.1508 44.4666 17.5645 44.8697 15.8261C45.4204 13.4262 45.0008 10.9058 43.7022 8.81377C42.4035 6.72172 40.331 5.2274 37.9358 4.65613C36.3283 4.27965 34.6499 4.33372 33.0699 4.8129C31.4899 5.29207 30.0642 6.17941 28.9366 7.38541L28.768 7.55401L25.554 4.56129L25.7121 4.39269C27.1465 2.84324 28.9197 1.64635 30.8931 0.895476C32.8666 0.144602 34.9869 -0.139926 37.0885 0.0641128C39.1901 0.268151 41.2161 0.955233 43.0082 2.0717C44.8004 3.18817 46.3102 4.7038 47.4198 6.50024C48.7831 8.65822 49.5133 11.1555 49.5273 13.708Z" fill="#E5E1E6"/>
</svg>
