<svg width="50" height="50" viewBox="0 0 50 50" fill="none" xmlns="http://www.w3.org/2000/svg">
<path d="M30.1194 22.7754L31.3584 23.1358C33.3147 23.6863 35.3415 23.9444 37.3733 23.9018C40.3745 23.7663 43.3205 23.047 46.0464 21.7842C46.8687 21.4237 47.7022 21.0408 48.5019 20.6578L49.5607 20.1622L48.0739 16.9971L46.3843 17.9207C43.2585 19.6243 39.7504 20.5042 36.1906 20.4776C35.3056 20.4286 34.425 20.3195 33.5549 20.1509C32.9691 20.0496 32.4285 19.9031 31.809 19.7454L31.2908 19.6103H31.1895L30.7051 19.4751L30.829 19.171L39.2769 1.47556L36.2131 0L27.4386 18.3149L27.1908 18.2136C25.0691 17.2873 23.0433 16.1555 21.1422 14.8344L20.793 14.6429L17.8306 8.26763L16.0171 4.50552C15.5215 3.46925 15.0484 2.43298 14.5754 1.39671L14.0347 0.270331L13.9333 0L10.8583 1.45303L14.0347 8.34647L16.2875 13.0435L15.7243 12.9083C14.8739 12.7519 14.0063 12.7103 13.1449 12.7844C12.7659 12.8254 12.3897 12.8893 12.0185 12.9759C10.5426 13.3312 9.09041 13.7789 7.67065 14.3163C6.80333 14.6317 5.95855 15.0034 5.06871 15.4427L3.85222 15.9833L0 17.4364V21.4801L0.304123 21.3336L1.52061 20.7817L4.02118 19.6553C6.0374 18.743 8.1212 17.8081 10.205 16.9295C11.3749 16.4084 12.6413 16.139 13.9221 16.139C15.2028 16.139 16.4692 16.4084 17.6391 16.9295C17.8692 17.0383 18.07 17.2005 18.2248 17.4026L18.3375 17.4927L18.4276 17.5941L20.5114 22.0207C21.2623 23.6352 22.0433 25.2459 22.8542 26.8529C22.9155 26.9893 22.9471 27.1371 22.9471 27.2866C22.9471 27.436 22.9155 27.5838 22.8542 27.7202C21.3524 30.844 19.8506 33.9528 18.3487 37.0466L18.0559 37.6661C18.0187 37.7362 17.9773 37.8039 17.932 37.8689L17.6504 38.3307L17.4026 37.9928C16.5889 36.8067 15.451 35.88 14.1248 35.3233C12.7944 34.7326 11.3179 34.5532 9.88477 34.8081C8.45168 35.063 7.12753 35.7406 6.08245 36.7538C4.966 37.6943 4.16298 38.9529 3.78058 40.3618C3.39819 41.7706 3.45461 43.2625 3.94233 44.6384C4.34418 46.0462 5.15696 47.3019 6.27665 48.245C7.39634 49.1881 8.77199 49.7757 10.2275 49.9324L10.4979 50H11.9058L12.2325 49.9324C12.5141 49.9324 12.7957 49.8198 13.0773 49.7409C14.1644 49.4788 15.1786 48.975 16.0444 48.2672C16.9102 47.5593 17.6054 46.6655 18.0784 45.6522C19.554 42.6109 21.0182 39.5472 22.4825 36.4947L24.4312 32.4285C24.4312 32.2933 24.5551 32.1581 24.6452 31.9892L25.0056 31.2683L25.3773 32.0117L25.535 32.2933L27.4273 36.1681L31.9329 45.3931C32.468 46.6388 33.3228 47.7209 34.4107 48.5299C35.4986 49.3389 36.781 49.8461 38.128 50C38.2068 50 38.2519 50 38.3082 50H39.4346H39.9076C40.1667 50 40.4258 49.9099 40.6848 49.8423C42.4399 49.4233 43.9898 48.3964 45.06 46.9437C46.1301 45.4909 46.6514 43.7062 46.5313 41.9059C46.4111 40.1055 45.6575 38.4058 44.4038 37.1082C43.1501 35.8105 41.4775 34.9986 39.6824 34.8164C39.4008 34.8164 39.1192 34.8164 38.8488 34.8164C37.675 34.8106 36.5165 35.082 35.4674 35.6085C34.4183 36.135 33.5083 36.9018 32.8114 37.8464L32.5974 38.128L32.3384 38.4884L32.023 37.9815L31.8991 37.7675L31.1219 36.0442C29.7927 33.3183 28.4674 30.5925 27.1458 27.8666C27.0161 27.5451 27.0161 27.1857 27.1458 26.8642C27.4611 26.1658 27.7878 25.4787 28.1144 24.8029C28.4411 24.1271 28.6664 23.6765 28.9254 23.1021C28.9498 23.0175 28.991 22.9387 29.0465 22.8705C29.102 22.8022 29.1708 22.7459 29.2486 22.7049C29.3265 22.6639 29.4118 22.639 29.4995 22.6317C29.5872 22.6245 29.6754 22.6351 29.759 22.6628H29.8153H29.9166H30.0518L30.1194 22.7754ZM14.1811 45.3931C13.408 46.1701 12.3599 46.6112 11.2638 46.6209C10.1454 46.612 9.07564 46.1622 8.28688 45.3692C7.49813 44.5763 7.05407 43.5041 7.05114 42.3857C7.03865 41.8397 7.13478 41.2966 7.33395 40.7881C7.53311 40.2795 7.83134 39.8156 8.21131 39.4233C8.60698 39.0142 9.08145 38.6894 9.60609 38.4687C10.1307 38.248 10.6946 38.1359 11.2638 38.1392C12.3771 38.167 13.4357 38.6277 14.2149 39.4233C14.613 39.8153 14.9292 40.2826 15.145 40.7979C15.3608 41.3133 15.472 41.8664 15.472 42.4251C15.472 42.9838 15.3608 43.5369 15.145 44.0523C14.9292 44.5676 14.613 45.0349 14.2149 45.4269L14.1811 45.3931ZM35.9315 39.4233C36.3255 39.0267 36.7941 38.7121 37.3102 38.4975C37.8264 38.2829 38.38 38.1726 38.939 38.173C40.067 38.1772 41.1478 38.6265 41.9464 39.4233C42.3409 39.8176 42.6527 40.2868 42.8636 40.8032C43.0744 41.3196 43.18 41.873 43.1741 42.4307C43.1712 43.5481 42.7268 44.6191 41.9377 45.4103C41.1486 46.2014 40.0789 46.6487 38.9615 46.6547C37.8392 46.6517 36.7636 46.2045 35.97 45.4109C35.1764 44.6173 34.7293 43.5418 34.7263 42.4195C34.7196 41.8652 34.8227 41.3152 35.0295 40.801C35.2364 40.2867 35.5429 39.8185 35.9315 39.4233ZM24.5438 22.5276L23.4174 20.2748L24.1158 20.5564C24.6339 20.7704 25.1521 20.9845 25.6589 21.1759L25.9405 21.2886L24.9155 23.3161L24.5438 22.5276Z" fill="#E5E1E6"/>
</svg>
