<svg width="35" height="35" viewBox="0 0 35 35" fill="none" xmlns="http://www.w3.org/2000/svg">
<path d="M17.5 4.9688C10.7313 4.9688 2.56308 6.46078 2.56308 6.46078C2.23995 6.51762 2.00386 6.79842 2.00522 7.1265V29.3549C2.00388 29.729 2.30741 30.0326 2.68149 30.0312C12.5526 30.0312 22.4237 30.0312 32.2949 30.0312H32.3185C32.6926 30.0325 32.9962 29.729 32.9948 29.3549C32.9948 21.9455 32.9948 14.536 32.9948 7.1265C32.9968 6.79997 32.7646 6.51977 32.4435 6.46078C32.4435 6.46078 24.2688 4.9688 17.5 4.9688ZM17.5 6.31602C23.8225 6.31602 31.0731 7.6307 31.6476 7.73306V10.1552H28.7096C28.3947 10.0533 24.0239 8.67373 17.5 8.67373C10.9765 8.67373 6.60706 10.0531 6.29172 10.1552H3.3538V7.73306C3.92826 7.63074 11.1775 6.31602 17.5 6.31602ZM17.5 10.0209C19.1551 10.0209 20.667 10.114 22.0049 10.2511C21.9531 11.0764 21.5108 11.8339 20.7524 12.4273C19.9447 13.0592 18.79 13.472 17.5 13.472C16.2101 13.472 15.0567 13.0592 14.249 12.4273C13.4906 11.8339 13.0517 11.0764 13.0004 10.2511C14.3372 10.1139 15.8461 10.0209 17.5 10.0209ZM11.6163 10.4222C11.4805 12.1476 10.3302 13.1245 9.05202 13.7602C8.31107 14.1287 7.58515 14.3381 7.05745 14.4601V11.3354C7.68041 11.1512 9.18576 10.7548 11.6163 10.4222ZM23.3903 10.4236C25.8112 10.755 27.3141 11.1488 27.9426 11.3341V14.4602C27.4165 14.338 26.6937 14.1278 25.9546 13.7602C24.6768 13.1247 23.5266 12.1481 23.3903 10.4236ZM3.3538 11.5025H5.71545V28.6827H3.3538C3.3538 22.9559 3.3538 17.2292 3.3538 11.5025ZM29.2912 11.5025H31.6476C31.6476 17.2292 31.6476 22.9559 31.6476 28.6827H29.2912V11.5025ZM22.5944 12.4313C23.2371 13.6273 24.3198 14.4507 25.352 14.964C26.3756 15.4731 27.3434 15.7148 27.9426 15.8351V22.0095H26.8098C26.1264 20.6662 25.5095 19.4805 25.5862 17.5244C25.6071 17.1181 25.2655 16.787 24.86 16.8191C24.5149 16.8458 24.2468 17.1283 24.2389 17.4743C24.1757 19.0881 24.5453 20.318 25.0099 21.3819C23.9158 20.7093 23.056 19.6677 22.4233 18.469C21.597 16.9035 21.1908 15.1054 21.1471 13.7944C21.2982 13.6974 21.4434 13.5954 21.5826 13.4866C21.9736 13.1807 22.3165 12.825 22.5944 12.4313ZM12.4096 12.4327C12.6865 12.8259 13.027 13.1811 13.4175 13.4866C13.5578 13.5963 13.7057 13.6994 13.8582 13.7971C13.8134 15.108 13.404 16.9056 12.5781 18.4704C11.9454 19.669 11.0856 20.7107 9.99142 21.3833C10.4563 20.3191 10.8257 19.0888 10.7624 17.4744C10.7533 17.0962 10.4338 16.8009 10.0559 16.8192C9.68552 16.8399 9.40203 17.154 9.42042 17.5244C9.49708 19.4806 8.87892 20.6663 8.19552 22.0096H7.05745V15.8351C7.65654 15.715 8.62502 15.4735 9.64935 14.9641C10.6812 14.4509 11.7653 13.6281 12.4096 12.4327ZM19.8367 14.4273C19.9672 15.8647 20.4152 17.5417 21.2352 19.0954C21.8472 20.2548 22.6825 21.3438 23.7535 22.1543C23.3155 22.4963 23.4475 23.3582 24.1692 23.3582H24.8323C24.3693 23.9404 23.8568 24.7188 23.4535 25.7198H11.5518C11.148 24.719 10.6354 23.9403 10.1717 23.3582H10.8321C11.5536 23.3582 11.6851 22.4979 11.2479 22.1556C12.321 21.3449 13.1591 20.2567 13.7714 19.0966C14.5913 17.5432 15.0394 15.8659 15.1699 14.4286C15.8876 14.6794 16.6736 14.8193 17.5 14.8193C18.3284 14.8193 19.1177 14.679 19.8367 14.4273ZM7.05745 23.3582H8.35866C8.73468 23.6635 10.6314 25.3454 10.8742 28.6827H9.28622V27.8722C9.29027 27.4923 8.97936 27.1849 8.59943 27.192C8.22922 27.2003 7.93342 27.502 7.93764 27.8722V28.6827H7.05745V23.3582ZM26.6466 23.3582H27.9426V28.6827H27.0677V27.8722C27.0718 27.4923 26.7621 27.1849 26.3822 27.192C26.012 27.2003 25.7162 27.502 25.7204 27.8722V28.6827H24.1324C24.375 25.3486 26.2679 23.6661 26.6466 23.3582ZM11.9794 27.0618H23.0259C22.906 27.5641 22.8234 28.1052 22.7851 28.6827H12.2215C12.1832 28.1052 12.0995 27.5641 11.9794 27.0618Z" fill="white"/>
</svg>
