<svg width="50" height="50" viewBox="0 0 50 50" fill="none" xmlns="http://www.w3.org/2000/svg">
<path d="M0 50L3.58555 36.6253C1.55737 32.9759 0.491199 28.8704 0.487386 24.6953C0.487386 11.0785 11.5658 0 25.1826 0C38.7994 0 49.8769 11.0785 49.8769 24.6953C49.8769 38.312 38.8046 49.3905 25.1826 49.3905C21.0817 49.3855 17.0468 48.3569 13.444 46.3979L0 50ZM14.1125 41.3864L14.9568 41.8914C18.0477 43.7384 21.5799 44.7166 25.1806 44.7226C36.2228 44.7226 45.2079 35.7385 45.2079 24.6953C45.2079 13.652 36.2249 4.67001 25.1826 4.67001C14.1404 4.67001 5.15532 13.652 5.15532 24.6953C5.1605 28.3594 6.17362 31.9515 8.08378 35.0783L8.60117 35.931L6.60092 43.3991L14.1125 41.3864Z" fill="#00D954"/>
<path fill-rule="evenodd" clip-rule="evenodd" d="M34.3685 28.1297C33.3523 27.5212 32.0298 26.8424 30.8326 27.3329C29.9137 27.7085 29.327 29.1469 28.732 29.8806C28.4267 30.2583 28.0614 30.3162 27.5937 30.1279C24.1458 28.7547 21.5029 26.4523 19.5999 23.2796C19.2781 22.7871 19.335 22.399 19.7241 21.9417C20.2995 21.2649 21.0207 20.493 21.1728 19.5834C21.3249 18.6738 20.9007 17.6059 20.524 16.7894C20.0418 15.7547 19.5027 14.2718 18.4637 13.6851C17.5076 13.1449 16.2493 13.4471 15.3977 14.1404C13.9283 15.3376 13.2184 17.2127 13.2401 19.0712C13.246 19.5983 13.3113 20.1232 13.4347 20.6358C13.7306 21.862 14.2977 23.0065 14.9351 24.0951C15.4159 24.9151 15.9392 25.7095 16.5028 26.4751C18.3398 28.9977 20.6473 31.1411 23.2983 32.7873C24.6309 33.6191 26.0544 34.2954 27.5409 34.8031C29.2018 35.3515 30.6815 35.9227 32.4748 35.5823C34.3519 35.2253 36.2 34.0632 36.9482 32.2544C37.1686 31.7184 37.2793 31.1223 37.1552 30.5563C36.8944 29.3911 35.3153 28.6957 34.3685 28.1297Z" fill="#00D954"/>
</svg>
