<svg width="288" height="288" viewBox="0 0 288 288" fill="none" xmlns="http://www.w3.org/2000/svg">
<rect width="288" height="288" rx="144" fill="white"/>
<path d="M103.33 126.072C103.986 116.276 104.603 107.053 105.259 97.2661C98.0176 98.9067 92.3499 102.22 86.6156 105.573C82.0724 108.23 84.8394 111.871 84.8641 115.125C77.3331 115.272 73.9054 109.606 77.3303 103.095C78.9048 100.102 81.419 97.9887 84.2925 96.4885C114.756 80.5843 146.537 72.8714 180.732 81.7314C191.079 84.4122 200.408 88.8599 206.588 98.4613C213.17 108.688 212.561 119.544 203.589 129.532C192.453 141.929 179.552 152.453 166.528 162.732C149.344 176.295 132.314 189.976 117.422 206.129C115.138 208.608 112.711 211.954 108.852 208.558C104.944 205.118 106.017 201.172 108.855 197.776C115.29 190.074 123.961 184.985 131.646 178.739C151.444 162.649 171.217 146.527 190.991 130.405C193.862 128.064 195.859 124.996 197.775 121.883C204.074 111.647 202.874 105.183 193.134 97.9988C183.794 91.1098 172.765 89.2223 161.652 88.4607C147.498 87.4905 133.408 88.4455 119.558 92.0346C115.552 93.0727 113.668 94.6241 113.226 99.26C111.371 118.707 112.359 138.164 112.225 157.616C112.178 164.553 115.139 171.05 114.973 178.021C114.917 180.374 115.205 182.562 112.504 183.52C109.687 184.519 107.727 183.037 106.398 180.85C103.445 175.989 103.121 170.424 103.072 164.981C102.958 152.204 103.196 139.424 103.33 126.072Z" fill="#612651"/>
</svg>
