<svg version="1.1" id="Layer_1" xmlns="http://www.w3.org/2000/svg" xmlns:xlink="http://www.w3.org/1999/xlink" x="0px" y="0px"
	 width="100%" viewBox="0 0 646 386" enable-background="new 0 0 646 386" xml:space="preserve">
<path fill="none" opacity="1.000000" stroke="none" 
	d="
M371.000000,387.000000 
	C247.363144,387.000000 124.226295,387.000000 1.044720,387.000000 
	C1.044720,258.394318 1.044720,129.788589 1.044720,1.091436 
	C216.220215,1.091436 431.440491,1.091436 646.830383,1.091436 
	C646.830383,129.666489 646.830383,258.333221 646.830383,387.000000 
	C555.121887,387.000000 463.310944,387.000000 371.000000,387.000000 
M329.104492,208.416794 
	C329.065918,211.531433 329.116302,214.650314 328.967529,217.759674 
	C328.754211,222.218430 328.395630,226.670227 327.525757,230.704102 
	C325.256317,226.337463 323.253784,221.800552 320.617432,217.667953 
	C319.033020,215.184265 316.652832,211.844666 314.287445,211.538574 
	C310.632507,211.065582 306.209320,212.015808 302.947327,213.848953 
	C292.305542,219.829269 282.005035,226.423676 271.656128,232.914017 
	C268.649597,234.799606 265.612671,236.114944 262.549194,233.763184 
	C259.227905,231.213531 261.628571,228.170395 262.873596,225.736053 
	C267.877502,215.952057 274.535400,207.426224 283.812988,201.343155 
	C288.858490,198.034958 294.001038,193.303589 300.518707,199.061264 
	C300.949310,199.441635 303.263672,198.747681 303.550720,198.067581 
	C306.202240,191.785828 303.495331,183.092712 295.434204,183.302094 
	C291.052277,183.415909 286.393341,185.136383 282.447113,187.236542 
	C273.868073,191.802231 266.917175,198.254562 260.248901,205.559692 
	C254.245483,212.136505 250.029083,218.728210 248.235504,227.275681 
	C246.304825,236.476501 252.242950,246.484848 261.367920,249.312653 
	C266.740692,250.977661 270.759064,247.901840 274.772797,245.667679 
	C285.821930,239.517456 296.595673,232.872498 308.863342,225.602539 
	C313.782227,231.061234 318.964386,237.022400 324.381866,242.761429 
	C329.237518,247.905289 334.040405,246.816223 337.786438,240.630844 
	C342.372986,233.057632 347.391113,225.739578 352.385529,218.422379 
	C354.687500,215.049774 357.151794,211.730286 359.940948,208.760956 
	C364.530518,203.874908 369.444092,199.293198 374.649841,194.160416 
	C375.733917,196.228745 376.653992,197.296265 376.861023,198.487686 
	C378.569855,208.321152 378.132050,218.108887 376.373718,227.926788 
	C375.257202,234.160736 375.128906,240.687164 378.345795,246.260803 
	C379.632355,248.489960 383.446991,249.259995 386.110870,250.694168 
	C386.734436,248.489517 387.897766,246.281494 387.884003,244.080826 
	C387.835907,236.389648 387.369080,228.701447 387.084198,221.011276 
	C386.697083,210.561310 386.482727,200.102234 385.908875,189.662750 
	C385.430634,180.962067 379.104401,177.342041 372.096771,182.162079 
	C366.507385,186.006592 361.686768,190.993240 356.658234,195.617920 
	C354.289948,197.796005 352.142883,200.236740 350.058746,202.696686 
	C346.628967,206.744949 343.331818,210.905548 340.031708,214.130936 
	C339.069427,209.159348 338.375580,204.109802 336.969025,199.267258 
	C336.584625,197.944031 334.059814,197.242523 332.517273,196.255692 
	C332.155548,197.502548 331.793823,198.749405 331.272339,200.876846 
	C331.207123,203.267944 331.141876,205.659058 330.496460,208.083557 
	C330.302856,208.090103 330.109253,208.096664 329.104492,208.416794 
M395.169128,117.495956 
	C395.114655,124.635826 394.980011,131.776505 395.051666,138.915115 
	C395.074921,141.233246 395.638000,143.545959 396.050690,146.806625 
	C396.030731,151.535812 396.010773,156.264999 395.436249,161.506226 
	C395.296783,163.012085 395.157349,164.517944 394.895935,166.950012 
	C394.257935,177.820480 393.772339,188.702728 392.934753,199.557785 
	C392.238403,208.582581 390.878967,217.558960 390.281433,226.587753 
	C389.816254,233.616516 389.928070,240.695740 390.063629,247.747131 
	C390.138092,251.621353 392.421265,253.760727 396.418976,253.868301 
	C403.852631,254.068298 405.639496,249.411362 405.361816,241.683228 
	C405.092529,234.188614 404.208588,226.716095 403.508972,218.190704 
	C405.804169,219.321075 406.962646,219.613449 407.746552,220.320862 
	C415.312927,227.149216 422.713135,234.165512 430.387115,240.869034 
	C433.585907,243.663300 437.218475,246.015854 440.857178,248.235901 
	C444.338074,250.359650 447.140717,248.384354 448.759552,245.497314 
	C450.595245,242.223633 454.021942,238.439194 450.239349,234.735474 
	C446.631287,231.202698 442.240387,228.454391 438.117615,225.466049 
	C432.427460,221.341583 426.535980,217.480133 421.027283,213.130463 
	C419.663788,212.053833 418.340607,209.073807 418.888031,207.749695 
	C421.274506,201.976868 424.234070,196.503220 431.310974,194.975464 
	C435.870514,193.991135 437.477142,190.082336 434.746613,186.301178 
	C432.251709,182.846329 429.147156,179.658478 423.376251,181.229568 
	C417.485992,186.098557 411.595764,190.967529 405.772583,195.781067 
	C405.772583,182.996552 405.772583,170.494110 405.907349,157.354889 
	C405.994659,156.930374 406.081940,156.505859 406.684906,155.639999 
	C406.747955,154.755173 406.810974,153.870331 406.896973,152.052032 
	C407.240448,144.709503 407.583893,137.366989 407.980621,129.084137 
	C408.360626,119.498894 408.940735,109.916344 409.069641,100.327721 
	C409.228088,88.538033 409.010071,76.743286 409.078735,64.076859 
	C409.360382,52.691547 409.755096,41.306908 409.822571,29.920330 
	C409.835175,27.795992 408.722931,23.942900 407.807098,23.842897 
	C404.425598,23.473663 400.773865,23.893957 397.481995,24.879770 
	C394.409302,25.799942 391.369415,27.329109 391.857849,31.815800 
	C392.768463,40.181023 393.309082,48.586529 394.196899,57.434875 
	C394.395935,57.719334 394.662750,57.907867 395.069122,58.903664 
	C395.047241,61.627586 395.025360,64.351509 394.183441,67.384834 
	C394.124512,75.436516 394.026093,83.488327 394.052246,91.539726 
	C394.055847,92.655937 394.674255,93.770157 395.070526,95.773369 
	C395.131958,97.844162 395.193390,99.914955 395.075928,102.848183 
	C395.375427,105.570763 395.674957,108.293335 396.039734,111.811714 
	C396.118591,112.872040 396.197449,113.932365 396.146332,115.707253 
	C396.082062,116.186905 396.017822,116.666557 395.169128,117.495956 
M69.919762,280.031952 
	C69.919762,280.031952 69.860481,280.060455 69.917877,280.860840 
	C70.072014,281.990540 70.072731,283.167725 70.405029,284.242310 
	C72.674858,291.582458 77.080704,294.525879 84.314621,292.017426 
	C89.914963,290.075439 86.158745,284.507477 86.937271,280.636139 
	C86.992508,280.361450 86.687515,280.028992 86.602959,279.709381 
	C85.055321,273.859528 82.489967,268.062897 82.170807,262.145447 
	C81.285782,245.736908 81.103348,229.278198 81.080513,212.838699 
	C81.055122,194.560440 81.512283,176.281494 81.888481,157.158737 
	C81.965027,155.453140 82.041573,153.747559 82.667488,151.440063 
	C82.709259,148.628983 82.751030,145.817886 82.885994,142.338287 
	C82.857246,141.890213 82.828499,141.442123 82.907257,140.241058 
	C82.848228,138.727722 82.789200,137.214401 82.814384,135.415405 
	C82.814384,135.415405 82.712692,135.135498 82.832733,134.682556 
	C82.832733,134.682556 82.834541,134.213974 83.405334,133.891144 
	C84.941483,132.889236 86.352333,131.419418 88.036034,130.968506 
	C94.448486,129.251175 100.885910,127.456726 107.430351,126.439941 
	C119.231102,124.606514 131.115585,123.312012 143.700089,121.842201 
	C155.139908,122.208366 166.579742,122.574539 178.820572,123.123116 
	C182.890121,123.804642 186.975266,124.404831 191.026566,125.181526 
	C210.188934,128.855240 228.257736,134.517822 239.618057,152.228592 
	C242.610550,156.893906 246.591766,161.479355 244.504486,167.468735 
	C242.499146,173.223053 239.886459,178.819611 237.020721,184.209030 
	C230.882431,195.753036 219.860703,202.739227 210.657532,211.375290 
	C205.671341,216.054230 199.700226,219.664871 194.387314,224.018463 
	C184.942535,231.757843 175.769836,239.831039 166.275330,247.507355 
	C158.819885,253.535095 150.981506,259.086700 143.440353,265.011627 
	C135.580673,271.186768 127.804092,277.472412 120.114151,283.857880 
	C105.109161,296.317444 87.175087,305.299530 75.518799,321.768616 
	C72.801430,325.607971 71.611420,330.394867 73.744232,334.555847 
	C75.913597,338.788116 82.252037,340.984222 85.001678,338.406494 
	C103.126442,321.414886 121.047989,304.200348 139.427643,287.489441 
	C148.529282,279.214172 158.421722,271.802368 168.035065,264.098053 
	C176.599258,257.234558 185.418472,250.682358 193.850174,243.662521 
	C200.570923,238.067139 206.637909,231.679474 213.420685,226.167191 
	C225.341187,216.479492 237.015289,206.646103 246.909363,194.750351 
	C257.380554,182.160782 265.521393,162.574722 252.163651,144.066833 
	C246.782562,136.611008 241.429092,128.942261 233.121628,124.508682 
	C220.360840,117.698402 207.015610,112.596672 192.627289,109.797630 
	C177.095505,106.776154 161.560211,106.047882 145.895355,106.644897 
	C139.390610,106.892815 132.939240,108.364357 126.432045,108.757935 
	C108.676376,109.831856 91.732918,114.621292 74.925034,119.882324 
	C66.590469,122.491104 58.293003,125.514839 50.448845,129.319931 
	C40.307205,134.239456 29.593878,138.464401 22.310629,147.951782 
	C18.589497,152.799042 17.196676,159.157761 19.679958,164.366852 
	C21.575640,168.343353 27.874010,171.903412 33.548466,171.615585 
	C32.626984,169.352127 32.311874,166.861771 30.905973,165.486435 
	C28.084995,162.726807 28.253130,160.325699 30.796463,157.905945 
	C41.108326,148.095123 53.780422,142.545029 67.075699,138.218002 
	C68.380829,137.793228 69.943947,138.161179 72.323288,138.161179 
	C69.932739,155.111298 68.301117,171.491486 68.396233,188.586716 
	C68.355972,191.733414 68.315712,194.880127 68.202538,198.957840 
	C68.121773,206.632172 68.041016,214.306503 67.395760,222.604965 
	C67.574493,230.081024 67.753227,237.557098 68.022186,245.962662 
	C68.097206,253.307251 68.172218,260.651825 68.076340,268.824341 
	C68.322060,270.925903 68.567787,273.027466 69.015320,275.745850 
	C69.063995,276.175720 69.112671,276.605591 68.986137,277.719696 
	C69.300812,278.512085 69.615486,279.304504 69.919762,280.031952 
M455.139648,224.215942 
	C453.153809,227.041931 452.812622,229.731293 455.908722,232.926498 
	C456.419342,241.071915 461.462341,245.813477 468.085999,249.564468 
	C480.853302,256.794617 495.265381,258.879272 509.080933,262.752441 
	C530.708252,268.815552 552.476624,274.374878 574.181885,280.160278 
	C582.806335,282.459045 591.396545,284.892242 600.051331,287.069336 
	C604.931641,288.296906 606.556030,287.043091 607.004028,282.385193 
	C607.099304,281.394775 607.163330,280.393402 607.364075,279.422363 
	C608.710571,272.909882 608.385193,272.317841 602.138062,270.920990 
	C581.114014,266.220093 560.089172,261.522095 539.054871,256.867523 
	C520.841919,252.837280 502.549347,249.136688 484.441772,244.681503 
	C479.929840,243.571396 474.602997,241.786453 472.921509,235.565735 
	C474.314148,235.297256 475.263824,234.893600 476.171448,234.972672 
	C487.789948,235.984543 498.199249,231.641739 508.638184,227.582748 
	C511.451599,226.488800 514.527832,225.302139 514.919312,221.430206 
	C516.239441,208.372482 504.310425,198.332962 491.663605,197.255157 
	C488.848694,197.149628 486.034607,196.993164 483.218719,196.947998 
	C474.299683,196.804901 460.786926,202.490814 456.914368,215.643982 
	C456.856110,216.032471 456.797821,216.420944 456.134277,217.305420 
	C456.152435,218.851822 456.170593,220.398209 456.093262,222.592712 
	C456.004028,223.019257 455.914825,223.445801 455.139648,224.215942 
M330.953735,288.984222 
	C321.455505,289.378754 311.872772,289.113220 302.477997,290.315887 
	C286.666992,292.339966 270.950958,295.158691 255.247009,297.937164 
	C249.919754,298.879730 244.670685,300.478241 239.537415,302.222870 
	C236.433105,303.277893 235.207809,306.498535 236.834167,309.028442 
	C238.191132,311.139343 241.104767,313.016998 243.589600,313.429993 
	C246.340408,313.887207 249.374603,312.478821 252.307510,312.026245 
	C276.631165,308.272766 300.921417,304.268707 325.305725,300.958923 
	C335.351532,299.595398 345.617310,299.128632 355.757050,299.365692 
	C368.241058,299.657562 380.731659,300.799591 393.156891,302.149719 
	C405.260315,303.464905 417.353271,305.132812 429.326447,307.325104 
	C443.783142,309.972076 458.101532,313.369965 472.503510,316.327271 
	C473.851227,316.604034 475.369141,316.051910 476.801300,315.885437 
	C475.802704,309.332489 470.800293,308.270020 466.498016,307.115021 
	C454.821991,303.980347 443.120178,300.724335 431.230682,298.651733 
	C412.047302,295.307617 392.768616,292.259033 373.408844,290.262421 
	C359.667084,288.845184 345.725403,289.366272 330.953735,288.984222 
z"/>
<path fill="#5F2D56" opacity="1.000000" stroke="none" 
	d="
M68.247238,267.996429 
	C68.172218,260.651825 68.097206,253.307251 68.177887,245.133209 
	C68.209145,236.862778 68.084694,229.421814 67.960251,221.980835 
	C68.041016,214.306503 68.121773,206.632172 68.519165,198.266617 
	C68.877724,194.378326 68.919662,191.181274 68.961594,187.984207 
	C68.301117,171.491486 69.932739,155.111298 72.323288,138.161179 
	C69.943947,138.161179 68.380829,137.793228 67.075699,138.218002 
	C53.780422,142.545029 41.108326,148.095123 30.796463,157.905945 
	C28.253130,160.325699 28.084995,162.726807 30.905973,165.486435 
	C32.311874,166.861771 32.626984,169.352127 33.548466,171.615585 
	C27.874010,171.903412 21.575640,168.343353 19.679958,164.366852 
	C17.196676,159.157761 18.589497,152.799042 22.310629,147.951782 
	C29.593878,138.464401 40.307205,134.239456 50.448845,129.319931 
	C58.293003,125.514839 66.590469,122.491104 74.925034,119.882324 
	C91.732918,114.621292 108.676376,109.831856 126.432045,108.757935 
	C132.939240,108.364357 139.390610,106.892815 145.895355,106.644897 
	C161.560211,106.047882 177.095505,106.776154 192.627289,109.797630 
	C207.015610,112.596672 220.360840,117.698402 233.121628,124.508682 
	C241.429092,128.942261 246.782562,136.611008 252.163651,144.066833 
	C265.521393,162.574722 257.380554,182.160782 246.909363,194.750351 
	C237.015289,206.646103 225.341187,216.479492 213.420685,226.167191 
	C206.637909,231.679474 200.570923,238.067139 193.850174,243.662521 
	C185.418472,250.682358 176.599258,257.234558 168.035065,264.098053 
	C158.421722,271.802368 148.529282,279.214172 139.427643,287.489441 
	C121.047989,304.200348 103.126442,321.414886 85.001678,338.406494 
	C82.252037,340.984222 75.913597,338.788116 73.744232,334.555847 
	C71.611420,330.394867 72.801430,325.607971 75.518799,321.768616 
	C87.175087,305.299530 105.109161,296.317444 120.114151,283.857880 
	C127.804092,277.472412 135.580673,271.186768 143.440353,265.011627 
	C150.981506,259.086700 158.819885,253.535095 166.275330,247.507355 
	C175.769836,239.831039 184.942535,231.757843 194.387314,224.018463 
	C199.700226,219.664871 205.671341,216.054230 210.657532,211.375290 
	C219.860703,202.739227 230.882431,195.753036 237.020721,184.209030 
	C239.886459,178.819611 242.499146,173.223053 244.504486,167.468735 
	C246.591766,161.479355 242.610550,156.893906 239.618057,152.228592 
	C228.257736,134.517822 210.188934,128.855240 191.026566,125.181526 
	C186.975266,124.404831 182.890121,123.804642 178.218567,122.729294 
	C177.237030,122.022499 176.868988,121.451736 176.476257,121.434212 
	C166.096725,120.971092 155.715729,120.528252 145.330795,120.224228 
	C144.558197,120.201607 143.754379,121.244736 142.965088,121.792412 
	C131.115585,123.312012 119.231102,124.606514 107.430351,126.439941 
	C100.885910,127.456726 94.448486,129.251175 88.036034,130.968506 
	C86.352333,131.419418 84.941483,132.889236 82.975754,134.124420 
	C82.337074,134.648575 82.392578,134.907852 82.712692,135.135498 
	C82.712692,135.135498 82.814384,135.415405 82.500809,135.826462 
	C82.391403,137.823029 82.595573,139.408539 82.799751,140.994049 
	C82.828499,141.442123 82.857246,141.890213 82.557831,142.874451 
	C82.192474,146.287735 82.155289,149.164841 82.118103,152.041962 
	C82.041573,153.747559 81.965027,155.453140 81.529922,157.771729 
	C80.461929,160.362534 79.229553,162.314514 79.130264,164.322525 
	C78.596779,175.112122 77.905479,185.923080 78.087982,196.712814 
	C78.464668,218.982071 79.150368,241.252274 80.185455,263.499908 
	C80.448792,269.159851 82.327164,274.782013 83.796112,280.333496 
	C84.589706,283.332703 86.768135,286.358398 82.886124,288.571045 
	C78.406784,291.124146 75.573303,290.015198 73.172920,285.352081 
	C72.223862,283.508392 70.973595,281.819702 69.860474,280.060455 
	C69.860481,280.060455 69.919762,280.031952 69.910751,279.743622 
	C69.654938,278.648682 69.408142,277.842072 69.161346,277.035461 
	C69.112671,276.605591 69.063995,276.175720 69.114609,275.117676 
	C68.891685,272.325165 68.569466,270.160797 68.247238,267.996429 
z"/>
<path fill="#5F2C55" opacity="1.000000" stroke="none" 
	d="
M424.050690,181.066681 
	C429.147156,179.658478 432.251709,182.846329 434.746613,186.301178 
	C437.477142,190.082336 435.870514,193.991135 431.310974,194.975464 
	C424.234070,196.503220 421.274506,201.976868 418.888031,207.749695 
	C418.340607,209.073807 419.663788,212.053833 421.027283,213.130463 
	C426.535980,217.480133 432.427460,221.341583 438.117615,225.466049 
	C442.240387,228.454391 446.631287,231.202698 450.239349,234.735474 
	C454.021942,238.439194 450.595245,242.223633 448.759552,245.497314 
	C447.140717,248.384354 444.338074,250.359650 440.857178,248.235901 
	C437.218475,246.015854 433.585907,243.663300 430.387115,240.869034 
	C422.713135,234.165512 415.312927,227.149216 407.746552,220.320862 
	C406.962646,219.613449 405.804169,219.321075 403.508972,218.190704 
	C404.208588,226.716095 405.092529,234.188614 405.361816,241.683228 
	C405.639496,249.411362 403.852631,254.068298 396.418976,253.868301 
	C392.421265,253.760727 390.138092,251.621353 390.063629,247.747131 
	C389.928070,240.695740 389.816254,233.616516 390.281433,226.587753 
	C390.878967,217.558960 392.238403,208.582581 392.934753,199.557785 
	C393.772339,188.702728 394.257935,177.820480 395.144043,166.708221 
	C395.745270,167.297897 396.098419,168.129349 396.451538,168.960815 
	C396.727081,168.903351 397.002625,168.845886 397.278198,168.788422 
	C396.849060,166.190353 396.419922,163.592270 395.990784,160.994186 
	C396.010773,156.264999 396.030731,151.535812 395.995697,146.110260 
	C395.940704,145.413910 396.093079,144.993515 396.273651,144.630920 
	C396.351379,139.842758 396.248505,135.417206 396.091492,130.660461 
	C396.112000,129.890198 396.186676,129.451126 396.541321,128.792603 
	C396.639618,124.046333 396.457947,119.519516 396.276306,114.992699 
	C396.197449,113.932365 396.118591,112.872040 396.194336,111.073441 
	C395.984222,107.552032 395.619507,104.768890 395.254822,101.985748 
	C395.193390,99.914955 395.131958,97.844162 395.034393,95.104301 
	C394.998260,94.435234 395.126556,94.003464 395.302368,93.629951 
	C395.367004,84.840263 395.255859,76.424088 395.081055,67.779083 
	C395.017395,67.550255 395.003510,67.075432 395.003510,67.075432 
	C395.025360,64.351509 395.047241,61.627586 394.885925,58.264572 
	C394.485626,57.391655 394.252625,57.174919 394.003723,56.975269 
	C393.309082,48.586529 392.768463,40.181023 391.857849,31.815800 
	C391.369415,27.329109 394.409302,25.799942 397.481995,24.879770 
	C400.773865,23.893957 404.425598,23.473663 407.807098,23.842897 
	C408.722931,23.942900 409.835175,27.795992 409.822571,29.920330 
	C409.755096,41.306908 409.360382,52.691547 408.834747,64.227623 
	C408.246368,62.985039 407.901978,61.591698 407.557587,60.198353 
	C406.913239,71.110336 407.028412,82.000664 406.881195,92.887444 
	C406.730927,103.998444 406.259216,115.105133 406.115784,126.216133 
	C406.099487,127.477570 407.294159,128.754639 407.927338,130.024460 
	C407.583893,137.366989 407.240448,144.709503 406.644958,152.656494 
	C406.318359,154.201096 406.243805,155.141235 406.169250,156.081360 
	C406.081940,156.505859 405.994659,156.930374 405.543823,157.900482 
	C404.975494,158.703842 404.601593,158.954391 404.590240,159.220398 
	C404.083862,171.088852 403.411407,182.956070 403.256287,194.829956 
	C403.211914,198.225525 406.502869,199.183426 409.457092,196.783813 
	C412.145111,194.600449 414.588898,192.082504 416.940582,189.528152 
	C419.433289,186.820602 421.690582,183.896301 424.050690,181.066681 
M395.486237,55.506695 
	C395.486237,55.506695 395.524628,55.490368 395.486237,55.506695 
z"/>
<path fill="#5F2F55" opacity="1.000000" stroke="none" 
	d="
M339.978790,215.018799 
	C343.331818,210.905548 346.628967,206.744949 350.058746,202.696686 
	C352.142883,200.236740 354.289948,197.796005 356.658234,195.617920 
	C361.686768,190.993240 366.507385,186.006592 372.096771,182.162079 
	C379.104401,177.342041 385.430634,180.962067 385.908875,189.662750 
	C386.482727,200.102234 386.697083,210.561310 387.084198,221.011276 
	C387.369080,228.701447 387.835907,236.389648 387.884003,244.080826 
	C387.897766,246.281494 386.734436,248.489517 386.110901,250.694183 
	C383.446991,249.259995 379.632355,248.489960 378.345795,246.260803 
	C375.128906,240.687164 375.257202,234.160736 376.373718,227.926788 
	C378.132050,218.108887 378.569855,208.321152 376.861023,198.487686 
	C376.653992,197.296265 375.733917,196.228745 374.649841,194.160416 
	C369.444092,199.293198 364.530518,203.874908 359.940948,208.760956 
	C357.151794,211.730286 354.687500,215.049774 352.385529,218.422379 
	C347.391113,225.739578 342.372986,233.057632 337.786438,240.630844 
	C334.040405,246.816223 329.237518,247.905289 324.381866,242.761429 
	C318.964386,237.022400 313.782227,231.061234 308.863342,225.602539 
	C296.595673,232.872498 285.821930,239.517456 274.772797,245.667679 
	C270.759064,247.901840 266.740692,250.977661 261.367920,249.312653 
	C252.242950,246.484848 246.304825,236.476501 248.235504,227.275681 
	C250.029083,218.728210 254.245483,212.136505 260.248901,205.559692 
	C266.917175,198.254562 273.868073,191.802231 282.447113,187.236542 
	C286.393341,185.136383 291.052277,183.415909 295.434204,183.302094 
	C303.495331,183.092712 306.202240,191.785828 303.550720,198.067581 
	C303.263672,198.747681 300.949310,199.441635 300.518707,199.061264 
	C294.001038,193.303589 288.858490,198.034958 283.812988,201.343155 
	C274.535400,207.426224 267.877502,215.952057 262.873596,225.736053 
	C261.628571,228.170395 259.227905,231.213531 262.549194,233.763184 
	C265.612671,236.114944 268.649597,234.799606 271.656128,232.914017 
	C282.005035,226.423676 292.305542,219.829269 302.947327,213.848953 
	C306.209320,212.015808 310.632507,211.065582 314.287445,211.538574 
	C316.652832,211.844666 319.033020,215.184265 320.617432,217.667953 
	C323.253784,221.800552 325.256317,226.337463 327.899231,231.230377 
	C328.827576,231.476501 329.844971,231.226257 329.865295,230.911575 
	C330.056702,227.950256 330.077850,224.977951 330.282959,221.958038 
	C330.522369,221.801620 330.729645,221.620575 330.715851,221.601791 
	C330.555878,221.383835 330.362488,221.190369 330.128784,220.577911 
	C330.142487,218.785416 330.205383,217.405411 330.542908,215.810699 
	C330.903931,213.080719 330.990295,210.565430 331.076660,208.050156 
	C331.141876,205.659058 331.207123,203.267944 331.693481,200.485199 
	C335.845398,200.664871 336.293549,203.584183 337.025299,206.546478 
	C337.739441,209.437378 338.973175,212.199921 339.978790,215.018799 
z"/>
<path fill="#5F2D55" opacity="1.000000" stroke="none" 
	d="
M456.739532,216.809433 
	C456.797821,216.420944 456.856110,216.032471 457.295990,215.293396 
	C458.916718,213.771729 460.240326,212.676193 461.372650,211.409653 
	C462.669128,209.959442 463.491333,207.845383 465.053009,206.916962 
	C469.786377,204.102966 474.580811,201.160172 479.732788,199.357620 
	C483.600922,198.004288 488.057709,198.333450 492.252411,197.913589 
	C504.310425,198.332962 516.239441,208.372482 514.919312,221.430206 
	C514.527832,225.302139 511.451599,226.488800 508.638184,227.582748 
	C498.199249,231.641739 487.789948,235.984543 476.171448,234.972672 
	C475.263824,234.893600 474.314148,235.297256 472.921509,235.565735 
	C474.602997,241.786453 479.929840,243.571396 484.441772,244.681503 
	C502.549347,249.136688 520.841919,252.837280 539.054871,256.867523 
	C560.089172,261.522095 581.114014,266.220093 602.138062,270.920990 
	C608.385193,272.317841 608.710571,272.909882 607.364075,279.422363 
	C607.163330,280.393402 607.099304,281.394775 607.004028,282.385193 
	C606.556030,287.043091 604.931641,288.296906 600.051331,287.069336 
	C591.396545,284.892242 582.806335,282.459045 574.181885,280.160278 
	C552.476624,274.374878 530.708252,268.815552 509.080933,262.752441 
	C495.265381,258.879272 480.853302,256.794617 468.085999,249.564468 
	C461.462341,245.813477 456.419342,241.071915 456.059723,232.196075 
	C456.082336,228.934540 455.953979,226.403442 455.825623,223.872345 
	C455.914825,223.445801 456.004028,223.019257 456.331909,222.013123 
	C456.626892,219.892166 456.683197,218.350800 456.739532,216.809433 
M480.536774,224.002655 
	C488.381317,222.924469 496.538635,222.794418 503.021118,216.890396 
	C502.650482,216.023819 502.513428,215.351929 502.134613,214.870193 
	C495.989990,207.056580 475.601807,206.970139 469.877899,215.045181 
	C468.468750,217.033127 467.888672,220.712051 468.781799,222.832611 
	C469.357178,224.198807 473.291046,224.303482 475.764984,224.652832 
	C477.007843,224.828354 478.351837,224.288055 480.536774,224.002655 
z"/>
<path fill="#5D2C53" opacity="1.000000" stroke="none" 
	d="
M331.413330,289.003204 
	C345.725403,289.366272 359.667084,288.845184 373.408844,290.262421 
	C392.768616,292.259033 412.047302,295.307617 431.230682,298.651733 
	C443.120178,300.724335 454.821991,303.980347 466.498016,307.115021 
	C470.800293,308.270020 475.802704,309.332489 476.801300,315.885437 
	C475.369141,316.051910 473.851227,316.604034 472.503510,316.327271 
	C458.101532,313.369965 443.783142,309.972076 429.326447,307.325104 
	C417.353271,305.132812 405.260315,303.464905 393.156891,302.149719 
	C380.731659,300.799591 368.241058,299.657562 355.757050,299.365692 
	C345.617310,299.128632 335.351532,299.595398 325.305725,300.958923 
	C300.921417,304.268707 276.631165,308.272766 252.307510,312.026245 
	C249.374603,312.478821 246.340408,313.887207 243.589600,313.429993 
	C241.104767,313.016998 238.191132,311.139343 236.834167,309.028442 
	C235.207809,306.498535 236.433105,303.277893 239.537415,302.222870 
	C244.670685,300.478241 249.919754,298.879730 255.247009,297.937164 
	C270.950958,295.158691 286.666992,292.339966 302.477997,290.315887 
	C311.872772,289.113220 321.455505,289.378754 331.413330,289.003204 
z"/>
<path fill="#593251" opacity="1.000000" stroke="none" 
	d="
M69.889175,280.460632 
	C70.973595,281.819702 72.223862,283.508392 73.172920,285.352081 
	C75.573303,290.015198 78.406784,291.124146 82.886124,288.571045 
	C86.768135,286.358398 84.589706,283.332703 83.796112,280.333496 
	C82.327164,274.782013 80.448792,269.159851 80.185455,263.499908 
	C79.150368,241.252274 78.464668,218.982071 78.087982,196.712814 
	C77.905479,185.923080 78.596779,175.112122 79.130264,164.322525 
	C79.229553,162.314514 80.461929,160.362534 81.465363,158.193787 
	C81.512283,176.281494 81.055122,194.560440 81.080513,212.838699 
	C81.103348,229.278198 81.285782,245.736908 82.170807,262.145447 
	C82.489967,268.062897 85.055321,273.859528 86.602959,279.709381 
	C86.687515,280.028992 86.992508,280.361450 86.937271,280.636139 
	C86.158745,284.507477 89.914963,290.075439 84.314621,292.017426 
	C77.080704,294.525879 72.674858,291.582458 70.405029,284.242310 
	C70.072731,283.167725 70.072014,281.990540 69.889175,280.460632 
z"/>
<path fill="#522C4B" opacity="1.000000" stroke="none" 
	d="
M407.953979,129.554291 
	C407.294159,128.754639 406.099487,127.477570 406.115784,126.216133 
	C406.259216,115.105133 406.730927,103.998444 406.881195,92.887444 
	C407.028412,82.000664 406.913239,71.110336 407.557587,60.198353 
	C407.901978,61.591698 408.246368,62.985039 408.772766,64.664551 
	C409.010071,76.743286 409.228088,88.538033 409.069641,100.327721 
	C408.940735,109.916344 408.360626,119.498894 407.953979,129.554291 
z"/>
<path fill="#542E4B" opacity="1.000000" stroke="none" 
	d="
M423.713470,181.148132 
	C421.690582,183.896301 419.433289,186.820602 416.940582,189.528152 
	C414.588898,192.082504 412.145111,194.600449 409.457092,196.783813 
	C406.502869,199.183426 403.211914,198.225525 403.256287,194.829956 
	C403.411407,182.956070 404.083862,171.088852 404.590240,159.220398 
	C404.601593,158.954391 404.975494,158.703842 405.476440,158.218872 
	C405.772583,170.494110 405.772583,182.996552 405.772583,195.781067 
	C411.595764,190.967529 417.485992,186.098557 423.713470,181.148132 
z"/>
<path fill="#5A3653" opacity="1.000000" stroke="none" 
	d="
M491.958008,197.584381 
	C488.057709,198.333450 483.600922,198.004288 479.732788,199.357620 
	C474.580811,201.160172 469.786377,204.102966 465.053009,206.916962 
	C463.491333,207.845383 462.669128,209.959442 461.372650,211.409653 
	C460.240326,212.676193 458.916718,213.771729 457.317322,214.998596 
	C460.786926,202.490814 474.299683,196.804901 483.218719,196.947998 
	C486.034607,196.993164 488.848694,197.149628 491.958008,197.584381 
z"/>
<path fill="#4E2742" opacity="1.000000" stroke="none" 
	d="
M143.332581,121.817307 
	C143.754379,121.244736 144.558197,120.201607 145.330795,120.224228 
	C155.715729,120.528252 166.096725,120.971092 176.476257,121.434212 
	C176.868988,121.451736 177.237030,122.022499 177.818069,122.638092 
	C166.579742,122.574539 155.139908,122.208366 143.332581,121.817307 
z"/>
<path fill="#5B3955" opacity="1.000000" stroke="none" 
	d="
M340.005249,214.574860 
	C338.973175,212.199921 337.739441,209.437378 337.025299,206.546478 
	C336.293549,203.584183 335.845398,200.664871 331.773376,200.044922 
	C331.793823,198.749405 332.155548,197.502548 332.517273,196.255692 
	C334.059814,197.242523 336.584625,197.944031 336.969025,199.267258 
	C338.375580,204.109802 339.069427,209.159348 340.005249,214.574860 
z"/>
<path fill="#512B49" opacity="1.000000" stroke="none" 
	d="
M67.678009,222.292908 
	C68.084694,229.421814 68.209145,236.862778 68.132774,244.668457 
	C67.753227,237.557098 67.574493,230.081024 67.678009,222.292908 
z"/>
<path fill="#583050" opacity="1.000000" stroke="none" 
	d="
M396.261383,129.012039 
	C396.186676,129.451126 396.112000,129.890198 396.025024,131.122498 
	C396.039490,136.274979 396.066284,140.634247 396.093079,144.993515 
	C396.093079,144.993515 395.940704,145.413910 395.947449,145.637543 
	C395.638000,143.545959 395.074921,141.233246 395.051666,138.915115 
	C394.980011,131.776505 395.114655,124.635826 395.543518,117.773193 
	C396.032379,121.704292 396.146881,125.358170 396.261383,129.012039 
z"/>
<path fill="#583050" opacity="1.000000" stroke="none" 
	d="
M395.126556,94.003464 
	C395.126556,94.003464 394.998260,94.435234 395.003143,94.660263 
	C394.674255,93.770157 394.055847,92.655937 394.052246,91.539726 
	C394.026093,83.488327 394.124512,75.436516 394.593475,67.230133 
	C395.003510,67.075432 395.017395,67.550255 395.027649,68.245834 
	C395.067444,77.295425 395.097015,85.649445 395.126556,94.003464 
z"/>
<path fill="#583050" opacity="1.000000" stroke="none" 
	d="
M330.148102,222.008804 
	C330.077850,224.977951 330.056702,227.950256 329.865295,230.911575 
	C329.844971,231.226257 328.827576,231.476501 328.185913,231.440826 
	C328.395630,226.670227 328.754211,222.218430 328.967529,217.759674 
	C329.116302,214.650314 329.065918,211.531433 329.549194,208.697144 
	C330.085388,211.326797 330.176849,213.676102 330.268280,216.025406 
	C330.205383,217.405411 330.142487,218.785416 330.058777,220.830719 
	C330.074707,221.666962 330.111420,221.837891 330.148102,222.008804 
z"/>
<path fill="#583050" opacity="1.000000" stroke="none" 
	d="
M396.541321,128.792603 
	C396.146881,125.358170 396.032379,121.704292 395.935730,117.598312 
	C396.017822,116.666557 396.082062,116.186905 396.211304,115.349976 
	C396.457947,119.519516 396.639618,124.046333 396.541321,128.792603 
z"/>
<path fill="#5A3653" opacity="1.000000" stroke="none" 
	d="
M455.482635,224.044144 
	C455.953979,226.403442 456.082336,228.934540 456.004517,231.804962 
	C452.812622,229.731293 453.153809,227.041931 455.482635,224.044144 
z"/>
<path fill="#593251" opacity="1.000000" stroke="none" 
	d="
M82.392792,151.741013 
	C82.155289,149.164841 82.192474,146.287735 82.511230,143.208710 
	C82.751030,145.817886 82.709259,148.628983 82.392792,151.741013 
z"/>
<path fill="#512B49" opacity="1.000000" stroke="none" 
	d="
M68.678909,188.285461 
	C68.919662,191.181274 68.877724,194.378326 68.555618,197.801117 
	C68.315712,194.880127 68.355972,191.733414 68.678909,188.285461 
z"/>
<path fill="#583050" opacity="1.000000" stroke="none" 
	d="
M395.165375,102.416962 
	C395.619507,104.768890 395.984222,107.552032 396.161682,110.675545 
	C395.674957,108.293335 395.375427,105.570763 395.165375,102.416962 
z"/>
<path fill="#5B3955" opacity="1.000000" stroke="none" 
	d="
M330.542938,215.810699 
	C330.176849,213.676102 330.085388,211.326797 329.954773,208.540344 
	C330.109253,208.096664 330.302856,208.090103 330.786560,208.066864 
	C330.990295,210.565430 330.903931,213.080719 330.542938,215.810699 
z"/>
<path fill="#502947" opacity="1.000000" stroke="none" 
	d="
M395.713501,161.250214 
	C396.419922,163.592270 396.849060,166.190353 397.278198,168.788422 
	C397.002625,168.845886 396.727081,168.903351 396.451538,168.960815 
	C396.098419,168.129349 395.745270,167.297897 395.205017,166.245117 
	C395.157349,164.517944 395.296783,163.012085 395.713501,161.250214 
z"/>
<path fill="#593251" opacity="1.000000" stroke="none" 
	d="
M68.161789,268.410400 
	C68.569466,270.160797 68.891685,272.325165 69.013710,274.809265 
	C68.567787,273.027466 68.322060,270.925903 68.161789,268.410400 
z"/>
<path fill="#593251" opacity="1.000000" stroke="none" 
	d="
M82.853500,140.617554 
	C82.595573,139.408539 82.391403,137.823029 82.458694,135.969299 
	C82.789200,137.214401 82.848228,138.727722 82.853500,140.617554 
z"/>
<path fill="#5A3653" opacity="1.000000" stroke="none" 
	d="
M456.436890,217.057434 
	C456.683197,218.350800 456.626892,219.892166 456.379639,221.689072 
	C456.170593,220.398209 456.152435,218.851822 456.436890,217.057434 
z"/>
<path fill="#542E4B" opacity="1.000000" stroke="none" 
	d="
M406.427063,155.860687 
	C406.243805,155.141235 406.318359,154.201096 406.633453,153.123230 
	C406.810974,153.870331 406.747955,154.755173 406.427063,155.860687 
z"/>
<path fill="#593251" opacity="1.000000" stroke="none" 
	d="
M69.073746,277.377563 
	C69.408142,277.842072 69.654938,278.648682 69.915955,279.776093 
	C69.615486,279.304504 69.300812,278.512085 69.073746,277.377563 
z"/>
<path fill="#4E2B46" opacity="1.000000" stroke="none" 
	d="
M394.100311,57.205070 
	C394.252625,57.174919 394.485626,57.391655 394.850037,57.812981 
	C394.662750,57.907867 394.395935,57.719334 394.100311,57.205070 
z"/>
<path fill="#593251" opacity="1.000000" stroke="none" 
	d="
M82.772713,134.909027 
	C82.392578,134.907852 82.337074,134.648575 82.690353,134.285828 
	C82.834541,134.213974 82.832733,134.682556 82.772713,134.909027 
z"/>
<path fill="#4E2B46" opacity="1.000000" stroke="none" 
	d="
M395.302368,93.629951 
	C395.097015,85.649445 395.067444,77.295425 395.091309,68.474655 
	C395.255859,76.424088 395.367004,84.840263 395.302368,93.629951 
z"/>
<path fill="#502947" opacity="1.000000" stroke="none" 
	d="
M396.273651,144.630920 
	C396.066284,140.634247 396.039490,136.274979 396.079163,131.453674 
	C396.248505,135.417206 396.351379,139.842758 396.273651,144.630920 
z"/>
<path fill="#4E2B46" opacity="1.000000" stroke="none" 
	d="
M395.505432,55.498531 
	C395.524628,55.490368 395.486237,55.506695 395.505432,55.498531 
z"/>
<path fill="#5B3955" opacity="1.000000" stroke="none" 
	d="
M330.282959,221.958038 
	C330.111420,221.837891 330.074707,221.666962 330.107971,221.243225 
	C330.362488,221.190369 330.555878,221.383835 330.715851,221.601791 
	C330.729645,221.620575 330.522369,221.801620 330.282959,221.958038 
z"/>
<path fill="none" opacity="1.000000" stroke="none" 
	d="
M480.093445,224.037048 
	C478.351837,224.288055 477.007843,224.828354 475.764984,224.652832 
	C473.291046,224.303482 469.357178,224.198807 468.781799,222.832611 
	C467.888672,220.712051 468.468750,217.033127 469.877899,215.045181 
	C475.601807,206.970139 495.989990,207.056580 502.134613,214.870193 
	C502.513428,215.351929 502.650482,216.023819 503.021118,216.890396 
	C496.538635,222.794418 488.381317,222.924469 480.093445,224.037048 
z"/>
</svg>